<?xml version="1.0" encoding="utf-8"?>
<!-- Generator: Adobe Illustrator 16.0.4, SVG Export Plug-In . SVG Version: 6.00 Build 0)  -->
<!DOCTYPE svg PUBLIC "-//W3C//DTD SVG 1.1//EN" "http://www.w3.org/Graphics/SVG/1.1/DTD/svg11.dtd">
<svg version="1.1" id="图层_1" xmlns="http://www.w3.org/2000/svg" xmlns:xlink="http://www.w3.org/1999/xlink" x="0px" y="0px"
	 width="283.46px" height="99.21px" viewBox="0 0 283.46 99.21" enable-background="new 0 0 283.46 99.21" xml:space="preserve">
<g>
	<circle fill="#F41938" cx="170.177" cy="32.065" r="4.491"/>
	<g>
		<path d="M122.627,27.75h17.237c3.413,0,5.957,0.143,7.633,0.427c1.676,0.284,3.176,0.877,4.5,1.779
			c1.324,0.902,2.428,2.104,3.309,3.604c0.883,1.499,1.324,3.181,1.324,5.044c0,2.02-0.545,3.872-1.633,5.56
			c-1.088,1.686-2.564,2.951-4.426,3.794c2.627,0.765,4.646,2.069,6.059,3.912s2.119,4.01,2.119,6.501
			c0,1.961-0.457,3.867-1.369,5.721s-2.156,3.334-3.736,4.441c-1.578,1.108-3.523,1.789-5.838,2.044
			c-1.451,0.158-4.951,0.256-10.501,0.295h-14.678V27.75z M131.334,34.928v9.971h5.707c3.392,0,5.501-0.048,6.324-0.146
			c1.49-0.177,2.662-0.691,3.515-1.545c0.853-0.853,1.28-1.975,1.28-3.368c0-1.333-0.368-2.416-1.104-3.25
			c-0.735-0.833-1.829-1.338-3.279-1.515c-0.863-0.098-3.344-0.146-7.442-0.146H131.334z M131.334,52.075v11.531h8.06
			c3.138,0,5.127-0.089,5.971-0.265c1.295-0.235,2.348-0.81,3.162-1.721c0.814-0.912,1.221-2.133,1.221-3.662
			c0-1.294-0.314-2.393-0.941-3.295c-0.627-0.901-1.534-1.559-2.721-1.971c-1.187-0.411-3.761-0.618-7.721-0.618H131.334z"/>
		<path d="M166.045,70.872V43.616l8.264-3.982v31.238H166.045z"/>
		<path d="M183.164,39.634v-6.206l8.295-4.824v11.03h5.646v6.589h-5.646v12.589c0,2.55,0.053,4.035,0.16,4.457
			c0.107,0.421,0.354,0.77,0.736,1.044s0.848,0.412,1.396,0.412c0.766,0,1.873-0.266,3.324-0.794l0.705,6.411
			c-1.922,0.824-4.098,1.236-6.529,1.236c-1.49,0-2.834-0.251-4.029-0.75c-1.197-0.5-2.074-1.147-2.633-1.942
			c-0.559-0.794-0.947-1.867-1.162-3.22c-0.176-0.961-0.264-2.902-0.264-5.825V46.223"/>
		<path d="M201.193,59.782l7.572-1.517c0.236,1.863,1.596,4.003,2.754,5.091c1.156,1.089,2.488,1.633,4,1.633
			c1.725,0,3.186-0.701,4.383-2.104c1.195-1.402,1.795-3.516,1.795-6.339c0-2.647-0.594-4.633-1.781-5.956
			c-1.186-1.324-2.73-1.986-4.633-1.986c-2.373,0-4.5,1.05-6.383,3.147l-6.705-0.971l4.234-22.442h23.184l-4.646,7.735h-12.271
			l-1.295,7.324c1.844-0.922,3.727-1.383,5.648-1.383c3.666,0,6.775,1.335,9.324,4.001c2.549,2.667,3.824,6.128,3.824,10.384
			c0,3.549-1.029,6.716-3.09,9.501c-2.805,3.804-6.695,5.705-11.676,5.705c-3.982,0-7.227-1.068-9.736-3.206
			C203.184,66.264,201.684,63.391,201.193,59.782z"/>
		<path d="M234.756,60.9l7.338-1.546c0.195,1.628,1.369,3.497,2.193,4.281c0.822,0.784,1.912,1.177,3.264,1.177
			c1.707,0,3.158-0.784,4.354-2.354c1.195-1.568,1.961-4.824,2.295-9.766c-2.078,2.412-4.678,3.618-7.795,3.618
			c-3.393,0-6.32-1.309-8.779-3.927c-2.463-2.618-3.693-6.024-3.693-10.222c0-4.372,1.299-7.897,3.898-10.574
			c2.598-2.677,5.906-4.015,9.928-4.015c4.373,0,7.961,1.691,10.766,5.074c2.803,3.382,4.207,8.947,4.207,16.693
			c0,7.883-1.463,13.569-4.383,17.06c-2.924,3.491-6.727,5.236-11.414,5.236c-3.373,0-6.1-0.897-8.178-2.691
			C236.678,67.15,235.344,64.47,234.756,60.9z M253.463,42.84c0-2.667-0.611-4.736-1.838-6.206c-1.225-1.471-2.643-2.206-4.25-2.206
			c-1.529,0-2.799,0.603-3.809,1.809c-1.012,1.206-1.516,3.182-1.516,5.927c0,2.785,0.549,4.829,1.646,6.133
			c1.1,1.305,2.471,1.956,4.119,1.956c1.588,0,2.926-0.627,4.016-1.883C252.92,47.115,253.463,45.271,253.463,42.84z"/>
		<path d="M269.018,32.221l8.266-4.646v43.298h-8.266v-31.15"/>
	</g>
</g>
<g>
	<path fill="#F41938" d="M32.02,46.464l29.647,35.333c3.375,4.021,9.372,4.546,13.395,1.171l29.134-24.448
		c4.023-3.374,4.548-9.371,1.172-13.394L81.596,16.794c-3.376-4.022-10.78-3.367-14.803,0.008l-1.457,1.223l9.167,10.926l0,0
		c0,0-10.955-13.057-8.929-10.642l26.59,31.689l-4.37,3.667L71.721,67.152l-2.964,2.486l-26.59-31.689"/>
	<path d="M82.521,53.155L53.238,17.521c-3.333-4.056-9.325-4.643-13.382-1.308L10.472,40.358c-4.057,3.333-4.643,9.325-1.31,13.382
		l23.48,28.574c3.334,4.057,10.745,3.478,14.802,0.144l1.469-1.208l-9.055-11.018l0,0c0,0,10.821,13.167,8.82,10.731l-26.265-31.96
		l4.408-3.622L43.034,32.06l2.989-2.455l26.264,31.96"/>
</g>
</svg>
