<?xml version="1.0" standalone="no"?><!DOCTYPE svg PUBLIC "-//W3C//DTD SVG 1.1//EN" "http://www.w3.org/Graphics/SVG/1.1/DTD/svg11.dtd"><svg t="1517485405784" class="icon" style="" viewBox="0 0 1024 1024" version="1.1" xmlns="http://www.w3.org/2000/svg" p-id="8109" xmlns:xlink="http://www.w3.org/1999/xlink" width="200" height="200"><defs><style type="text/css"></style></defs><path d="M736.961588 1005.467925H284.647969c-44.576241 0-80.84119-36.264948-80.84119-80.84119V97.069803c0-44.576241 36.264948-80.84119 80.84119-80.84119h452.312596c44.576241 0 80.84119 36.264948 80.841189 80.84119v827.555909c0.001023 44.576241-36.264948 80.842213-80.840166 80.842213zM284.647969 36.694737c-33.291221 0-60.375066 27.083845-60.375066 60.375066v827.555909c0 33.290197 27.083845 60.375066 60.375066 60.375065h452.312596c33.290197 0 60.375066-27.084868 60.375065-60.375065V97.069803c0-33.291221-27.084868-60.375066-60.375065-60.375066H284.647969z" fill="#bfbfbf" p-id="8110"></path><path d="M592.93738 116.507504H428.674223c-5.65172 0-10.233062-4.581342-10.233062-10.233062s4.581342-10.233062 10.233062-10.233062h164.263157c5.650697 0 10.233062 4.581342 10.233062 10.233062s-4.582365 10.233062-10.233062 10.233062zM512.140193 957.773669c-23.974018 0-43.478234-19.505239-43.478234-43.478233s19.504216-43.478234 43.478234-43.478234 43.478234 19.505239 43.478234 43.478234-19.505239 43.478234-43.478234 43.478233z m0-72.63018c-16.074094 0-29.151947 13.07683-29.151947 29.151947s13.077853 29.151947 29.151947 29.151947c16.075117 0 29.151947-13.07683 29.151947-29.151947s-13.07683-29.151947-29.151947-29.151947z" fill="#bfbfbf" p-id="8111"></path></svg>